<?xml version="1.0" standalone="no"?>
<!DOCTYPE svg PUBLIC "-//W3C//DTD SVG 20010904//EN"
 "http://www.w3.org/TR/2001/REC-SVG-20010904/DTD/svg10.dtd">
<svg version="1.0" xmlns="http://www.w3.org/2000/svg"
 width="512.000000pt" height="512.000000pt" viewBox="0 0 512.000000 512.000000"
 preserveAspectRatio="xMidYMid meet">

<g transform="translate(0.000000,512.000000) scale(0.100000,-0.100000)"
fill="#000000" stroke="none">
<path d="M1621 3004 c-7 -17 -11 -142 -11 -393 0 -304 2 -371 14 -387 12 -15
18 -17 33 -8 16 10 19 30 23 159 3 102 9 150 17 152 6 2 24 -20 38 -49 14 -29
34 -66 44 -83 10 -16 32 -57 50 -90 39 -72 59 -95 81 -95 40 0 40 21 -2 99
-23 42 -59 108 -80 146 -20 39 -47 88 -59 109 -27 51 -22 81 31 176 23 41 60
109 82 150 22 41 44 79 49 85 15 15 10 34 -11 45 -39 21 -49 7 -172 -235 -23
-44 -43 -82 -45 -85 -14 -17 -23 43 -23 160 0 74 -4 140 -8 146 -16 23 -39 22
-51 -2z"/>
<path d="M2051 3016 c-8 -9 -10 -125 -9 -407 l3 -394 125 0 c124 0 125 0 128
24 2 12 1 34 -2 47 -6 23 -10 24 -89 24 -51 0 -88 5 -95 12 -17 17 -17 242 1
256 7 6 46 12 87 14 63 3 75 6 78 21 7 37 -26 57 -94 57 -52 0 -65 3 -74 19
-13 25 -13 211 0 245 9 25 12 26 94 26 90 0 102 6 92 46 -6 24 -8 24 -120 24
-84 0 -117 -4 -125 -14z"/>
<path d="M2430 3023 c-8 -3 -18 -11 -22 -17 -4 -6 -8 -183 -8 -393 0 -372 1
-383 20 -393 12 -6 64 -9 126 -8 120 3 137 12 118 65 -9 27 -12 28 -89 31 -43
2 -85 8 -92 14 -18 15 -18 243 0 255 6 4 46 10 87 13 67 4 75 7 78 27 5 32
-33 53 -95 53 -78 0 -83 9 -83 150 0 84 4 121 13 127 6 4 48 10 91 13 62 4 81
9 90 23 20 33 -16 47 -123 46 -53 0 -103 -3 -111 -6z"/>
<path d="M2756 3014 c-9 -8 -16 -19 -16 -23 0 -17 27 -31 60 -31 20 0 45 -6
56 -14 18 -14 19 -31 22 -368 1 -194 7 -357 11 -361 5 -5 18 -6 30 -2 21 6 21
10 21 338 0 196 4 347 10 369 10 36 12 37 63 40 42 2 53 7 55 22 8 37 -24 46
-164 46 -107 0 -136 -3 -148 -16z"/>
<path d="M3500 3022 c-27 -9 -30 -25 -30 -174 0 -80 -3 -153 -6 -162 -5 -13
-25 -16 -113 -16 -58 0 -113 5 -121 10 -12 7 -16 42 -20 172 l-5 163 -25 0
-25 0 -3 -397 c-2 -389 -2 -397 18 -403 11 -3 24 -3 30 0 6 4 10 72 10 173 0
92 5 174 10 182 13 21 221 28 238 8 7 -10 12 -73 14 -183 3 -144 5 -169 20
-178 12 -8 21 -7 32 2 14 12 16 59 16 395 0 394 -3 422 -40 408z"/>
<path d="M2105 2003 c-171 -61 -240 -422 -130 -677 23 -53 107 -132 148 -138
118 -18 201 43 256 187 27 72 39 242 23 352 -11 76 -55 179 -97 227 -25 27
-114 67 -145 65 -8 -1 -33 -8 -55 -16z m131 -102 c133 -98 151 -432 31 -583
-29 -36 -119 -50 -164 -25 -45 26 -79 84 -104 182 -24 91 -24 158 1 256 25 98
46 133 102 170 55 37 84 36 134 0z"/>
<path d="M3066 1997 c-62 -36 -86 -92 -86 -204 0 -73 4 -101 20 -130 22 -41
73 -87 110 -98 40 -12 100 -56 116 -86 19 -38 18 -107 -4 -149 -12 -25 -28
-39 -55 -47 -53 -18 -81 -2 -113 64 -20 44 -29 54 -47 51 -25 -3 -32 -31 -22
-85 9 -51 76 -120 125 -128 80 -14 131 19 174 110 23 48 26 182 5 223 -22 44
-70 102 -83 102 -8 0 -24 9 -38 19 -13 11 -37 23 -52 27 -17 4 -36 22 -53 51
-22 39 -25 51 -19 101 8 67 43 112 87 112 27 0 31 -4 104 -95 23 -29 25 -29
41 -13 16 16 17 23 6 64 -30 113 -126 163 -216 111z"/>
<path d="M1460 1981 c-11 -21 -15 -747 -4 -775 5 -13 48 -23 56 -13 1 1 4 83
7 182 l6 180 109 3 c71 2 113 -1 122 -9 11 -9 14 -48 14 -180 0 -102 4 -170
10 -174 6 -3 19 -3 30 0 20 6 20 16 20 394 0 333 -2 390 -15 401 -12 10 -18
10 -30 0 -12 -10 -15 -40 -15 -152 0 -105 -4 -146 -15 -168 l-16 -30 -99 0
c-88 0 -100 2 -110 19 -5 11 -10 83 -10 161 0 141 -8 180 -35 180 -8 0 -19 -9
-25 -19z"/>
<path d="M2512 1988 c-20 -20 -17 -553 3 -626 19 -69 39 -108 77 -146 25 -26
35 -30 92 -30 55 -1 68 3 91 24 88 81 107 178 103 524 -3 227 -5 250 -21 260
-15 9 -21 7 -33 -8 -11 -16 -14 -68 -14 -272 0 -349 -17 -416 -106 -430 -58
-8 -92 14 -116 77 -14 37 -17 85 -17 322 -1 172 -5 286 -11 298 -12 22 -30 25
-48 7z"/>
<path d="M3406 1984 c-3 -9 -6 -184 -6 -389 0 -205 3 -380 6 -389 5 -13 26
-16 129 -16 134 0 140 3 126 57 -7 28 -8 28 -94 31 -104 3 -99 -5 -95 162 l3
115 74 5 c81 5 107 23 85 58 -9 13 -28 18 -82 20 -87 3 -84 -2 -80 167 l3 120
85 3 c93 3 119 17 99 53 -9 17 -23 19 -128 19 -99 0 -120 -3 -125 -16z"/>
<path d="M1068 739 c-26 -15 -22 -39 5 -39 30 0 62 24 53 38 -9 15 -35 15 -58
1z"/>
<path d="M1327 739 c-9 -6 -17 -14 -17 -19 0 -12 40 -13 59 -1 21 14 -19 32
-42 20z"/>
<path d="M1458 739 c-10 -5 -18 -17 -18 -24 0 -8 -9 -15 -20 -15 -15 0 -20 -7
-20 -26 0 -17 6 -28 20 -31 11 -3 20 -14 20 -24 0 -21 25 -25 50 -9 13 9 13
11 0 20 -8 5 -23 10 -32 10 -13 0 -18 8 -18 30 0 25 4 30 23 30 30 0 62 24 53
38 -9 15 -35 15 -58 1z"/>
<path d="M1559 738 c-7 -23 2 -238 10 -238 14 0 31 119 21 146 -12 32 -3 53
28 65 30 12 20 26 -24 35 -22 4 -32 2 -35 -8z"/>
<path d="M1756 742 c-9 -15 -5 -242 5 -248 17 -10 40 16 30 35 -7 13 -9 144
-2 172 0 4 10 9 21 12 27 7 25 23 -2 31 -31 8 -46 7 -52 -2z"/>
<path d="M2209 738 c-1 -39 3 -243 5 -245 2 -2 11 -1 20 3 12 5 15 12 9 28 -7
20 -7 34 -2 86 1 14 -1 37 -5 52 -7 24 -4 30 25 47 l33 20 -28 11 c-36 13 -56
13 -57 -2z"/>
<path d="M2701 737 c-8 -11 -5 -19 12 -35 l23 -22 23 24 c13 14 20 29 16 35
-9 15 -60 14 -74 -2z"/>
<path d="M2963 737 l-33 -11 0 -78 c0 -61 3 -78 14 -78 9 0 16 -13 19 -32 3
-25 4 -22 5 15 2 39 5 47 21 47 11 0 23 -9 26 -20 9 -27 25 -25 25 3 0 13 5
28 12 35 9 9 7 12 -12 12 -52 0 -70 11 -70 41 0 21 5 29 18 29 9 0 25 7 35 15
18 13 18 14 -2 24 -11 6 -21 10 -23 10 -2 -1 -18 -7 -35 -12z"/>
<path d="M1175 731 c-3 -5 -1 -12 5 -16 5 -3 10 1 10 9 0 18 -6 21 -15 7z"/>
<path d="M2066 731 c-3 -5 1 -12 10 -15 20 -8 54 2 54 15 0 12 -57 12 -64 0z"/>
<path d="M3970 731 c0 -6 5 -13 10 -16 15 -9 71 5 64 16 -7 12 -74 12 -74 0z"/>
<path d="M1886 707 c-8 -31 8 -73 18 -47 3 8 2 29 -2 45 l-9 30 -7 -28z"/>
<path d="M2588 698 c-9 -18 -19 -59 -22 -91 l-6 -59 28 7 c24 5 31 2 43 -22
l14 -28 3 44 c4 52 -2 60 -28 36 -19 -17 -20 -17 -30 9 -14 37 -13 42 12 58
19 13 21 19 12 47 l-9 32 -17 -33z"/>
<path d="M3150 701 c0 -16 7 -34 15 -41 15 -13 20 -47 9 -74 -9 -23 -19 -20
-34 12 l-13 27 -7 -30 c-3 -16 -4 -41 -1 -54 l4 -24 16 22 c14 18 23 21 45 15
l27 -6 -6 53 c-6 55 -34 129 -47 129 -5 0 -8 -13 -8 -29z"/>
<path d="M3570 696 c0 -20 5 -36 10 -36 6 0 10 13 10 29 0 17 -4 33 -10 36 -6
4 -10 -8 -10 -29z"/>
<path d="M3673 695 c0 -22 2 -30 4 -17 2 12 2 30 0 40 -3 9 -5 -1 -4 -23z"/>
<path d="M3798 705 c-4 -16 -2 -37 2 -45 14 -24 24 14 13 47 l-10 28 -5 -30z"/>
<path d="M2387 694 c-14 -15 -6 -34 14 -34 14 0 19 5 17 17 -3 18 -20 27 -31
17z"/>
<path d="M1226 677 c-26 -19 -26 -102 1 -122 16 -12 18 -11 21 5 2 11 -2 28
-8 39 -8 15 -8 27 0 42 6 11 10 27 8 35 -3 13 -6 13 -22 1z"/>
<path d="M4035 636 c-20 -14 -20 -15 3 -36 12 -11 22 -31 23 -43 0 -21 1 -21
10 3 12 29 8 82 -6 87 -6 2 -20 -3 -30 -11z"/>
<path d="M1050 620 c0 -22 25 -27 50 -10 13 9 13 11 0 20 -25 17 -50 12 -50
-10z"/>
<path d="M1621 631 c-11 -7 -10 -13 2 -36 l14 -28 5 26 c6 32 -3 49 -21 38z"/>
<path d="M1921 624 c0 -11 3 -14 6 -6 3 7 2 16 -1 19 -3 4 -6 -2 -5 -13z"/>
<path d="M3910 615 c0 -16 6 -25 15 -25 9 0 15 9 15 25 0 16 -6 25 -15 25 -9
0 -15 -9 -15 -25z"/>
<path d="M2440 614 c0 -8 5 -12 10 -9 6 4 8 11 5 16 -9 14 -15 11 -15 -7z"/>
<path d="M3830 620 c0 -5 5 -10 10 -10 6 0 10 5 10 10 0 6 -4 10 -10 10 -5 0
-10 -4 -10 -10z"/>
<path d="M2832 564 c-2 -50 -1 -52 29 -58 44 -9 49 -8 49 8 0 9 -11 13 -32 12
-32 -1 -33 1 -39 44 l-6 45 -1 -51z"/>
<path d="M3610 550 c0 -33 3 -40 20 -40 16 0 20 7 20 34 0 22 -6 36 -16 40
-24 9 -24 9 -24 -34z"/>
<path d="M2470 535 c0 -19 5 -35 10 -35 6 0 10 16 10 35 0 19 -4 35 -10 35 -5
0 -10 -16 -10 -35z"/>
<path d="M1632 530 c0 -19 2 -27 5 -17 2 9 2 25 0 35 -3 9 -5 1 -5 -18z"/>
<path d="M2537 525 c-4 -8 -2 -17 3 -20 6 -4 10 3 10 14 0 25 -6 27 -13 6z"/>
<path d="M1050 521 c0 -13 37 -24 51 -15 8 4 7 9 -2 15 -19 12 -49 11 -49 0z"/>
<path d="M1440 521 c0 -13 37 -24 51 -15 8 4 7 9 -2 15 -19 12 -49 11 -49 0z"/>
<path d="M3055 521 c-3 -5 -1 -12 5 -16 5 -3 10 1 10 9 0 18 -6 21 -15 7z"/>
<path d="M3220 518 c0 -10 12 -14 38 -13 52 1 56 19 5 23 -31 2 -43 -1 -43
-10z"/>
<path d="M4000 520 l-35 -6 39 -8 c39 -7 57 -2 40 12 -5 5 -25 5 -44 2z"/>
<path d="M2084 509 c26 -6 43 -6 50 1 7 7 -6 10 -39 9 l-50 -1 39 -9z"/>
</g>
</svg>
