<svg width="158" height="95" viewBox="0 0 158 95" fill="none" xmlns="http://www.w3.org/2000/svg">
<path d="M56.508 57.666V73H54.506V66.048H46.696V73H44.694V57.666H46.696V64.398H54.506V57.666H56.508ZM66.8784 73.154C65.4558 73.154 64.1578 72.824 62.9844 72.164C61.8111 71.4893 60.8798 70.558 60.1904 69.37C59.5158 68.1673 59.1784 66.818 59.1784 65.322C59.1784 63.826 59.5158 62.484 60.1904 61.296C60.8798 60.0933 61.8111 59.162 62.9844 58.502C64.1578 57.8273 65.4558 57.49 66.8784 57.49C68.3158 57.49 69.6211 57.8273 70.7944 58.502C71.9678 59.162 72.8918 60.086 73.5664 61.274C74.2411 62.462 74.5784 63.8113 74.5784 65.322C74.5784 66.8327 74.2411 68.182 73.5664 69.37C72.8918 70.558 71.9678 71.4893 70.7944 72.164C69.6211 72.824 68.3158 73.154 66.8784 73.154ZM66.8784 71.416C67.9491 71.416 68.9098 71.1667 69.7604 70.668C70.6258 70.1693 71.3004 69.458 71.7844 68.534C72.2831 67.61 72.5324 66.5393 72.5324 65.322C72.5324 64.09 72.2831 63.0193 71.7844 62.11C71.3004 61.186 70.6331 60.4747 69.7824 59.976C68.9318 59.4773 67.9638 59.228 66.8784 59.228C65.7931 59.228 64.8251 59.4773 63.9744 59.976C63.1238 60.4747 62.4491 61.186 61.9504 62.11C61.4664 63.0193 61.2244 64.09 61.2244 65.322C61.2244 66.5393 61.4664 67.61 61.9504 68.534C62.4491 69.458 63.1238 70.1693 63.9744 70.668C64.8398 71.1667 65.8078 71.416 66.8784 71.416ZM79.1793 57.666V67.368C79.1793 68.732 79.5093 69.744 80.1693 70.404C80.844 71.064 81.7753 71.394 82.9633 71.394C84.1367 71.394 85.0533 71.064 85.7133 70.404C86.388 69.744 86.7253 68.732 86.7253 67.368V57.666H88.7273V67.346C88.7273 68.622 88.4707 69.7 87.9573 70.58C87.444 71.4453 86.7473 72.0907 85.8673 72.516C85.002 72.9413 84.0267 73.154 82.9413 73.154C81.856 73.154 80.8733 72.9413 79.9933 72.516C79.128 72.0907 78.4387 71.4453 77.9253 70.58C77.4267 69.7 77.1773 68.622 77.1773 67.346V57.666H79.1793ZM96.929 73.154C95.917 73.154 95.0077 72.978 94.201 72.626C93.409 72.2593 92.7857 71.7607 92.331 71.13C91.8764 70.4847 91.6417 69.744 91.627 68.908H93.761C93.8344 69.6267 94.1277 70.2353 94.641 70.734C95.169 71.218 95.9317 71.46 96.929 71.46C97.8824 71.46 98.6304 71.2253 99.173 70.756C99.7304 70.272 100.009 69.656 100.009 68.908C100.009 68.3213 99.8477 67.8447 99.525 67.478C99.2024 67.1113 98.799 66.8327 98.315 66.642C97.831 66.4513 97.1784 66.246 96.357 66.026C95.345 65.762 94.531 65.498 93.915 65.234C93.3137 64.97 92.793 64.5593 92.353 64.002C91.9277 63.43 91.715 62.6673 91.715 61.714C91.715 60.878 91.9277 60.1373 92.353 59.492C92.7784 58.8467 93.3724 58.348 94.135 57.996C94.9124 57.644 95.7997 57.468 96.797 57.468C98.2344 57.468 99.4077 57.8273 100.317 58.546C101.241 59.2647 101.762 60.218 101.879 61.406H99.679C99.6057 60.8193 99.2977 60.306 98.755 59.866C98.2124 59.4113 97.4937 59.184 96.599 59.184C95.763 59.184 95.081 59.404 94.553 59.844C94.025 60.2693 93.761 60.8707 93.761 61.648C93.761 62.2053 93.915 62.66 94.223 63.012C94.5457 63.364 94.9344 63.6353 95.389 63.826C95.8584 64.002 96.511 64.2073 97.347 64.442C98.359 64.7207 99.173 64.9993 99.789 65.278C100.405 65.542 100.933 65.96 101.373 66.532C101.813 67.0893 102.033 67.852 102.033 68.82C102.033 69.568 101.835 70.272 101.439 70.932C101.043 71.592 100.456 72.1273 99.679 72.538C98.9017 72.9487 97.985 73.154 96.929 73.154ZM106.981 59.294V64.42H112.569V66.07H106.981V71.35H113.229V73H104.979V57.644H113.229V59.294H106.981Z" fill="black"/>
<line y1="94" x2="158" y2="94" stroke="#f1b04c" stroke-width="2"/>
<path d="M58.01 54L51.696 47.004V54H49.694V38.666H51.696V45.772L58.032 38.666H60.562L53.61 46.344L60.628 54H58.01ZM64.8659 40.294V45.42H70.4539V47.07H64.8659V52.35H71.1139V54H62.8639V38.644H71.1139V40.294H64.8659ZM76.1452 40.294V45.42H81.7332V47.07H76.1452V52.35H82.3932V54H74.1432V38.644H82.3932V40.294H76.1452ZM94.8605 38.666V40.294H90.6805V54H88.6785V40.294H84.4765V38.666H94.8605ZM109.139 38.666V54H107.137V47.048H99.3269V54H97.3249V38.666H99.3269V45.398H107.137V38.666H109.139Z" fill="black"/>
<path d="M33.176 81.639V83.27H34.954V83.795H33.176V85.475H35.164V86H32.539V81.114H35.164V81.639H33.176ZM38.1229 83.564L39.6209 86H38.8999L37.7309 84.096L36.6179 86H35.9109L37.4019 83.564L35.9039 81.121H36.6179L37.7939 83.032L38.9139 81.121H39.6279L38.1229 83.564ZM43.7375 82.549C43.7375 82.955 43.5975 83.2933 43.3175 83.564C43.0422 83.83 42.6199 83.963 42.0505 83.963H41.1125V86H40.4755V81.121H42.0505C42.6012 81.121 43.0189 81.254 43.3035 81.52C43.5929 81.786 43.7375 82.129 43.7375 82.549ZM42.0505 83.438C42.4052 83.438 42.6665 83.361 42.8345 83.207C43.0025 83.053 43.0865 82.8337 43.0865 82.549C43.0865 81.947 42.7412 81.646 42.0505 81.646H41.1125V83.438H42.0505ZM45.1662 81.639V83.27H46.9442V83.795H45.1662V85.475H47.1542V86H44.5292V81.114H47.1542V81.639H45.1662ZM50.6871 86L49.5251 84.005H48.7551V86H48.1181V81.121H49.6931C50.0618 81.121 50.3721 81.184 50.6241 81.31C50.8808 81.436 51.0721 81.6063 51.1981 81.821C51.3241 82.0357 51.3871 82.2807 51.3871 82.556C51.3871 82.892 51.2891 83.1883 51.0931 83.445C50.9018 83.7017 50.6124 83.872 50.2251 83.956L51.4501 86H50.6871ZM48.7551 83.494H49.6931C50.0384 83.494 50.2974 83.41 50.4701 83.242C50.6428 83.0693 50.7291 82.8407 50.7291 82.556C50.7291 82.2667 50.6428 82.0427 50.4701 81.884C50.3021 81.7253 50.0431 81.646 49.6931 81.646H48.7551V83.494ZM53.0139 81.121V86H52.3769V81.121H53.0139ZM54.7365 81.639V83.27H56.5145V83.795H54.7365V85.475H56.7245V86H54.0995V81.114H56.7245V81.639H54.7365ZM61.5244 86H60.8874L58.3254 82.115V86H57.6884V81.114H58.3254L60.8874 84.992V81.114H61.5244V86ZM62.3723 83.557C62.3723 83.081 62.4796 82.654 62.6943 82.276C62.909 81.8933 63.2006 81.5947 63.5693 81.38C63.9426 81.1653 64.3556 81.058 64.8083 81.058C65.3403 81.058 65.8046 81.1863 66.2013 81.443C66.598 81.6997 66.8873 82.0637 67.0693 82.535H66.3063C66.171 82.241 65.975 82.0147 65.7183 81.856C65.4663 81.6973 65.163 81.618 64.8083 81.618C64.4676 81.618 64.162 81.6973 63.8913 81.856C63.6206 82.0147 63.4083 82.241 63.2543 82.535C63.1003 82.8243 63.0233 83.165 63.0233 83.557C63.0233 83.9443 63.1003 84.285 63.2543 84.579C63.4083 84.8683 63.6206 85.0923 63.8913 85.251C64.162 85.4097 64.4676 85.489 64.8083 85.489C65.163 85.489 65.4663 85.412 65.7183 85.258C65.975 85.0993 66.171 84.873 66.3063 84.579H67.0693C66.8873 85.0457 66.598 85.4073 66.2013 85.664C65.8046 85.916 65.3403 86.042 64.8083 86.042C64.3556 86.042 63.9426 85.937 63.5693 85.727C63.2006 85.5123 62.909 85.216 62.6943 84.838C62.4796 84.46 62.3723 84.033 62.3723 83.557ZM68.6545 81.639V83.27H70.4325V83.795H68.6545V85.475H70.6425V86H68.0175V81.114H70.6425V81.639H68.6545ZM77.3086 86H76.6716L74.1096 82.115V86H73.4726V81.114H74.1096L76.6716 84.992V81.114H77.3086V86ZM81.2785 84.915H79.1505L78.7585 86H78.0865L79.8505 81.149H80.5855L82.3425 86H81.6705L81.2785 84.915ZM81.0965 84.397L80.2145 81.933L79.3325 84.397H81.0965ZM86.1143 81.121V81.639H84.7843V86H84.1473V81.639H82.8103V81.121H86.1143ZM87.5214 81.121V84.208C87.5214 84.642 87.6264 84.964 87.8364 85.174C88.051 85.384 88.3474 85.489 88.7254 85.489C89.0987 85.489 89.3904 85.384 89.6004 85.174C89.815 84.964 89.9224 84.642 89.9224 84.208V81.121H90.5594V84.201C90.5594 84.607 90.4777 84.95 90.3144 85.23C90.151 85.5053 89.9294 85.7107 89.6494 85.846C89.374 85.9813 89.0637 86.049 88.7184 86.049C88.373 86.049 88.0604 85.9813 87.7804 85.846C87.505 85.7107 87.2857 85.5053 87.1224 85.23C86.9637 84.95 86.8844 84.607 86.8844 84.201V81.121H87.5214ZM94.191 86L93.029 84.005H92.259V86H91.622V81.121H93.197C93.5657 81.121 93.876 81.184 94.128 81.31C94.3847 81.436 94.576 81.6063 94.702 81.821C94.828 82.0357 94.891 82.2807 94.891 82.556C94.891 82.892 94.793 83.1883 94.597 83.445C94.4057 83.7017 94.1163 83.872 93.729 83.956L94.954 86H94.191ZM92.259 83.494H93.197C93.5423 83.494 93.8013 83.41 93.974 83.242C94.1467 83.0693 94.233 82.8407 94.233 82.556C94.233 82.2667 94.1467 82.0427 93.974 81.884C93.806 81.7253 93.547 81.646 93.197 81.646H92.259V83.494ZM98.7648 84.915H96.6368L96.2448 86H95.5728L97.3368 81.149H98.0718L99.8288 86H99.1568L98.7648 84.915ZM98.5828 84.397L97.7008 81.933L96.8188 84.397H98.5828ZM101.235 85.482H102.943V86H100.598V81.121H101.235V85.482ZM106.122 85.482H107.83V86H105.485V81.121H106.122V85.482ZM109.144 81.121V86H108.507V81.121H109.144ZM114.261 81.121L112.42 86H111.685L109.844 81.121H110.523L112.056 85.328L113.589 81.121H114.261ZM115.597 81.121V86H114.96V81.121H115.597ZM120.519 86H119.882L117.32 82.115V86H116.683V81.114H117.32L119.882 84.992V81.114H120.519V86ZM125.3 82.535C125.165 82.2503 124.969 82.031 124.712 81.877C124.456 81.7183 124.157 81.639 123.816 81.639C123.476 81.639 123.168 81.7183 122.892 81.877C122.622 82.031 122.407 82.255 122.248 82.549C122.094 82.8383 122.017 83.1743 122.017 83.557C122.017 83.9397 122.094 84.2757 122.248 84.565C122.407 84.8543 122.622 85.0783 122.892 85.237C123.168 85.391 123.476 85.468 123.816 85.468C124.292 85.468 124.684 85.3257 124.992 85.041C125.3 84.7563 125.48 84.3713 125.531 83.886H123.585V83.368H126.21V83.858C126.173 84.2593 126.047 84.628 125.832 84.964C125.618 85.2953 125.335 85.559 124.985 85.755C124.635 85.9463 124.246 86.042 123.816 86.042C123.364 86.042 122.951 85.937 122.577 85.727C122.204 85.5123 121.908 85.216 121.688 84.838C121.474 84.46 121.366 84.033 121.366 83.557C121.366 83.081 121.474 82.654 121.688 82.276C121.908 81.8933 122.204 81.597 122.577 81.387C122.951 81.1723 123.364 81.065 123.816 81.065C124.334 81.065 124.792 81.1933 125.188 81.45C125.59 81.7067 125.881 82.0683 126.063 82.535H125.3Z" fill="black"/>
<line x1="29.4654" y1="32.1549" x2="78.4654" y2="1.15492" stroke="#f1b04c" stroke-width="2"/>
<path d="M126.465 32L77.4654 1.00011" stroke="#f1b04c" stroke-width="2"/>
</svg>
